<?xml version="1.0" encoding="utf-8"?>
<!-- Generator: Adobe Illustrator 19.2.1, SVG Export Plug-In . SVG Version: 6.00 Build 0)  -->
<svg version="1.1" id="layer" xmlns="http://www.w3.org/2000/svg" xmlns:xlink="http://www.w3.org/1999/xlink" x="0px" y="0px"
	 viewBox="0 0 652 652" style="enable-background:new 0 0 652 652;" xml:space="preserve">
<style type="text/css">
	.st0{fill:#071C2C;}
</style>
<path class="st0" d="M259.8,284.8h32.1V392h30.9V284.8h32.1v-27h-95.1V284.8z M365.7,258.3v134.1h30.9v-53.1l41.1,52.7h39
	l-46.3-55.3c16.7-5.1,27.9-18.9,27.9-39c0-26.1-18.9-39.9-44.1-39.9h-48.4V258.3z M396.5,317.4v-35.1h3.4c11.6,0,25.7,0.9,25.7,17.6
	c0,16.7-13.7,17.6-25.7,17.6H396.5z M594.9,392h30.9l-12-134.1h-32.6l-30,77.1l-30-77.1h-32.6L475.8,392h30.9l6.4-79.3h0.9
	l27.9,78.9h18l27.9-78.9h0.9L594.9,392z"/>
<path class="st0" d="M135.5,403.7c0-7.7-5.6-14.1-12.9-15.4v-41.6c4.3-0.4,7.7-2.1,11.1-4.7l32.6,32.6c-2.6,4.3-2.1,10.3,1.7,13.7
	c4.3,4.3,11.6,4.3,15.9,0c4.3-4.3,4.3-11.6,0-15.9c-3.9-3.9-9.4-4.3-13.7-1.7l-32.6-32.6c2.6-3,4.3-6.9,4.7-11.1h41.6
	c1.3,7.3,7.7,12.9,15.4,12.9c8.6,0,15.4-6.9,15.4-15.4c0-8.6-7.7-14.6-16.3-14.6c-7.7,0-14.1,5.6-15.4,12.9h-41.6
	c-0.4-4.3-2.1-8.1-4.7-11.1l32.6-32.6c4.3,2.6,10.3,2.1,13.7-1.7c4.3-4.3,4.3-11.6,0-15.9c-4.3-4.3-11.6-4.3-15.9,0
	c-3.9,3.9-4.3,9.4-1.7,13.7l-31.7,33c-3-2.6-6.9-4.3-11.1-4.7v-41.1c7.3-1.3,12.9-7.7,12.9-15.4c0-8.6-6.9-15.4-15.4-15.4
	c-8.6,0-15.4,6.9-15.4,15.4c0,7.7,5.6,14.1,12.9,15.4v41.1c-4.3,0.4-8.1,2.1-11.1,4.7L74.2,276c2.6-4.3,2.1-10.3-1.7-13.7
	c-4.3-4.3-11.6-4.3-15.9,0c-4.3,4.3-4.3,11.6,0,15.9c3.9,3.9,9.4,4.3,13.7,1.7l32.1,32.1c-2.6,3-4.3,6.9-4.7,11.1H56.7
	c-1.3-7.3-7.7-12.9-15.4-12.9c-8.6,0-15.4,6.9-15.4,15.4c0,8.6,6.9,15.4,15.4,15.4c7.7,0,14.1-5.6,15.4-12.9h41.1
	c0.4,4.3,2.1,8.1,4.7,11.1l-32.1,32.1c-4.3-2.6-10.3-2.1-13.7,1.7c-4.3,4.3-4.3,11.6,0,15.9c4.3,4.3,11.6,4.3,15.9,0
	c3.9-3.9,4.3-9.4,1.7-13.7l32.6-32.6c3,2.6,6.9,4.3,11.1,4.7v41.6c-7.3,1.3-12.9,7.7-12.9,15.4c0,8.6,6.9,15.4,15.4,15.4
	C128.7,419.6,135.5,412.3,135.5,403.7z"/>
</svg>
